{
  "accessors": [
    {
      "bufferView": 2,
      "componentType": 5126,
      "count": 16440,
      "max": [
        0.1946006417274475,
        0.17729485034942627,
        0.13957847654819489
      ],
      "min": [
        -0.1968376636505127,
        -0.227308988571167,
        -0.16141416132450104
      ],
      "type": "VEC3"
    },
    {
      "bufferView": 2,
      "byteOffset": 197280,
      "componentType": 5126,
      "count": 16440,
      "max": [
        0.9999569058418274,
        0.9999359846115112,
        0.9999089241027832
      ],
      "min": [
        -0.9998974204063416,
        -0.9999929070472717,
        -0.9999985098838806
      ],
      "type": "VEC3"
    },
    {
      "bufferView": 1,
      "componentType": 5126,
      "count": 16440,
      "max": [
        0.9861111044883728,
        1.0
      ],
      "min": [
        0.00014442762767430395,
        -1.8239791899077318e-08
      ],
      "type": "VEC2"
    },
    {
      "bufferView": 0,
      "componentType": 5125,
      "count": 83964,
      "type": "SCALAR"
    },
    {
      "bufferView": 2,
      "byteOffset": 394560,
      "componentType": 5126,
      "count": 2192,
      "max": [
        0.29494690895080566,
        0.009454980492591858,
        0.25569823384284973
      ],
      "min": [
        -0.2966443598270416,
        -0.2501206398010254,
        -0.24878396093845367
      ],
      "type": "VEC3"
    },
    {
      "bufferView": 2,
      "byteOffset": 420864,
      "componentType": 5126,
      "count": 2192,
      "max": [
        0.998600959777832,
        0.999836802482605,
        0.9990089535713196
      ],
      "min": [
        -0.9980283379554749,
        -0.9994776844978333,
        -0.9990274906158447
      ],
      "type": "VEC3"
    },
    {
      "bufferView": 1,
      "byteOffset": 131520,
      "componentType": 5126,
      "count": 2192,
      "max": [
        0.6157406568527222,
        0.6620370149612427
      ],
      "min": [
        -2.3685135630557852e-08,
        0.0006543149356730282
      ],
      "type": "VEC2"
    },
    {
      "bufferView": 0,
      "byteOffset": 335856,
      "componentType": 5125,
      "count": 4548,
      "type": "SCALAR"
    },
    {
      "bufferView": 2,
      "byteOffset": 447168,
      "componentType": 5126,
      "count": 17008,
      "max": [
        0.2955514192581177,
        0.17729485034942627,
        0.2562989592552185
      ],
      "min": [
        -0.29713937640190125,
        -0.2508135139942169,
        -0.24944448471069336
      ],
      "type": "VEC3"
    },
    {
      "bufferView": 2,
      "byteOffset": 651264,
      "componentType": 5126,
      "count": 17008,
      "max": [
        0.9998942017555237,
        0.9998520612716675,
        0.9999991059303284
      ],
      "min": [
        -0.9999582171440125,
        -0.9999929070472717,
        -0.999728262424469
      ],
      "type": "VEC3"
    },
    {
      "bufferView": 1,
      "byteOffset": 149056,
      "componentType": 5126,
      "count": 17008,
      "max": [
        0.9861111044883728,
        1.0
      ],
      "min": [
        -2.3685135630557852e-08,
        -1.8239791899077318e-08
      ],
      "type": "VEC2"
    },
    {
      "bufferView": 0,
      "byteOffset": 354048,
      "componentType": 5125,
      "count": 80376,
      "type": "SCALAR"
    },
    {
      "bufferView": 2,
      "byteOffset": 855360,
      "componentType": 5126,
      "count": 84,
      "max": [
        0.017014026641845703,
        0.008401095867156982,
        0.004751972854137421
      ],
      "min": [
        -0.01729130744934082,
        -0.012585777789354324,
        -0.004072271287441254
      ],
      "type": "VEC3"
    },
    {
      "bufferView": 2,
      "byteOffset": 856368,
      "componentType": 5126,
      "count": 84,
      "max": [
        0.16575095057487488,
        0.999039351940155,
        0.9988541603088379
      ],
      "min": [
        -0.16572712361812592,
        -0.282855749130249,
        -0.9966788291931152
      ],
      "type": "VEC3"
    },
    {
      "bufferView": 1,
      "byteOffset": 285120,
      "componentType": 5126,
      "count": 84,
      "max": [
        0.9839968085289001,
        0.8120765686035156
      ],
      "min": [
        0.007291899994015694,
        0.017975494265556335
      ],
      "type": "VEC2"
    },
    {
      "bufferView": 0,
      "byteOffset": 675552,
      "componentType": 5125,
      "count": 360,
      "type": "SCALAR"
    },
    {
      "bufferView": 2,
      "byteOffset": 857376,
      "componentType": 5126,
      "count": 77,
      "max": [
        1.4184556007385254,
        0.8166507482528687,
        0.4957128167152405
      ],
      "min": [
        -1.3553937673568726,
        0.03252958133816719,
        -0.46848365664482117
      ],
      "type": "VEC3"
    },
    {
      "bufferView": 2,
      "byteOffset": 858300,
      "componentType": 5126,
      "count": 77,
      "max": [
        0.8033398389816284,
        0.9999959468841553,
        5.162613888387568e-06
      ],
      "min": [
        -0.7652279138565063,
        0.5955209136009216,
        -8.389072718273383e-06
      ],
      "type": "VEC3"
    },
    {
      "bufferView": 1,
      "byteOffset": 285792,
      "componentType": 5126,
      "count": 77,
      "max": [
        0.9836688041687012,
        0.6404888033866882
      ],
      "min": [
        0.01580969989299774,
        0.35919812321662903
      ],
      "type": "VEC2"
    },
    {
      "bufferView": 0,
      "byteOffset": 676992,
      "componentType": 5125,
      "count": 360,
      "type": "SCALAR"
    },
    {
      "bufferView": 2,
      "byteOffset": 859224,
      "componentType": 5126,
      "count": 16066,
      "max": [
        0.19566936790943146,
        0.29366713762283325,
        0.1557658165693283
      ],
      "min": [
        -0.19576895236968994,
        -0.11232399195432663,
        -0.14545899629592896
      ],
      "type": "VEC3"
    },
    {
      "bufferView": 2,
      "byteOffset": 1052016,
      "componentType": 5126,
      "count": 16066,
      "max": [
        0.9999569654464722,
        0.9999359846115112,
        0.999908983707428
      ],
      "min": [
        -0.9998974204063416,
        -0.9996351003646851,
        -0.9999985098838806
      ],
      "type": "VEC3"
    },
    {
      "bufferView": 1,
      "byteOffset": 286408,
      "componentType": 5126,
      "count": 16066,
      "max": [
        0.9861111044883728,
        1.0
      ],
      "min": [
        1.9003102806891548e-06,
        -1.8239791899077318e-08
      ],
      "type": "VEC2"
    },
    {
      "bufferView": 0,
      "byteOffset": 678432,
      "componentType": 5125,
      "count": 82560,
      "type": "SCALAR"
    },
    {
      "bufferView": 2,
      "byteOffset": 1244808,
      "componentType": 5126,
      "count": 2152,
      "max": [
        0.2960156202316284,
        0.12443997710943222,
        0.271653413772583
      ],
      "min": [
        -0.29557564854621887,
        -0.13513566553592682,
        -0.2328287810087204
      ],
      "type": "VEC3"
    },
    {
      "bufferView": 2,
      "byteOffset": 1270632,
      "componentType": 5126,
      "count": 2152,
      "max": [
        0.9986007809638977,
        0.9998367428779602,
        0.9990090727806091
      ],
      "min": [
        -0.9980281591415405,
        -0.999477744102478,
        -0.9990277290344238
      ],
      "type": "VEC3"
    },
    {
      "bufferView": 1,
      "byteOffset": 414936,
      "componentType": 5126,
      "count": 2152,
      "max": [
        0.6157406568527222,
        0.6620370149612427
      ],
      "min": [
        -2.3685135630557852e-08,
        0.0006543149356730282
      ],
      "type": "VEC2"
    },
    {
      "bufferView": 0,
      "byteOffset": 1008672,
      "componentType": 5125,
      "count": 4440,
      "type": "SCALAR"
    },
    {
      "bufferView": 2,
      "byteOffset": 1296456,
      "componentType": 5126,
      "count": 17006,
      "max": [
        0.29687923192977905,
        0.29366713762283325,
        0.2725116014480591
      ],
      "min": [
        -0.2962934374809265,
        -0.13612549006938934,
        -0.2337723970413208
      ],
      "type": "VEC3"
    },
    {
      "bufferView": 2,
      "byteOffset": 1500528,
      "componentType": 5126,
      "count": 17006,
      "max": [
        0.9998928308486938,
        0.9998693466186523,
        0.9999992847442627
      ],
      "min": [
        -0.9999587535858154,
        -0.9999359250068665,
        -0.9998498558998108
      ],
      "type": "VEC3"
    },
    {
      "bufferView": 1,
      "byteOffset": 432152,
      "componentType": 5126,
      "count": 17006,
      "max": [
        0.9861111044883728,
        1.0
      ],
      "min": [
        -2.3685135630557852e-08,
        -1.8239791899077318e-08
      ],
      "type": "VEC2"
    },
    {
      "bufferView": 0,
      "byteOffset": 1026432,
      "componentType": 5125,
      "count": 80376,
      "type": "SCALAR"
    }
  ],
  "asset": {
    "extras": {
      "author": "ผมเรียนกราฟิก (https://sketchfab.com/ramakienx)",
      "license": "CC-BY-NC-4.0 (http://creativecommons.org/licenses/by-nc/4.0/)",
      "source": "https://sketchfab.com/3d-models/gojo-satoru-jujutsu-kaisen-season-3c4b07524fb647b0873e8f697dec9119",
      "title": "Gojo satoru | jujutsu kaisen season"
    },
    "generator": "Sketchfab-15.44.0",
    "version": "2.0"
  },
  "bufferViews": [
    {
      "buffer": 0,
      "byteLength": 1347936,
      "name": "floatBufferViews",
      "target": 34963
    },
    {
      "buffer": 0,
      "byteLength": 568200,
      "byteOffset": 1347936,
      "byteStride": 8,
      "name": "floatBufferViews",
      "target": 34962
    },
    {
      "buffer": 0,
      "byteLength": 1704600,
      "byteOffset": 1916136,
      "byteStride": 12,
      "name": "floatBufferViews",
      "target": 34962
    }
  ],
  "buffers": [
    {
      "byteLength": 3620736,
      "uri": "scene.bin"
    }
  ],
  "extensionsUsed": [
    "KHR_materials_emissive_strength"
  ],
  "images": [
    {
      "uri": "textures/gojo_texture_baseColor.png"
    },
    {
      "uri": "textures/material_baseColor.png"
    },
    {
      "uri": "textures/background_baseColor.png"
    },
    {
      "uri": "textures/background_emissive.png"
    }
  ],
  "materials": [
    {
      "doubleSided": true,
      "name": "gojo_texture",
      "pbrMetallicRoughness": {
        "baseColorTexture": {
          "index": 0
        },
        "metallicFactor": 0.0
      }
    },
    {
      "doubleSided": true,
      "emissiveFactor": [
        0.22845363770050717,
        0.019154030799177827,
        0.5978448804492565
      ],
      "extensions": {
        "KHR_materials_emissive_strength": {
          "emissiveStrength": 10.0
        }
      },
      "name": "gojo_texture_emission",
      "pbrMetallicRoughness": {
        "baseColorTexture": {
          "index": 0
        },
        "metallicFactor": 0.0
      }
    },
    {
      "emissiveFactor": [
        0.00512527,
        0.00512527,
        0.00512527
      ],
      "name": "line"
    },
    {
      "doubleSided": true,
      "emissiveFactor": [
        0.9848870000000001,
        0.003011280000000002,
        0.006799260000000008
      ],
      "name": "material",
      "pbrMetallicRoughness": {
        "baseColorTexture": {
          "index": 1
        },
        "metallicFactor": 0.0
      }
    },
    {
      "alphaMode": "BLEND",
      "doubleSided": true,
      "emissiveFactor": [
        0.4723823920225281,
        0.4723823920225281,
        0.4723823920225281
      ],
      "emissiveTexture": {
        "index": 3
      },
      "name": "background",
      "pbrMetallicRoughness": {
        "baseColorTexture": {
          "index": 2
        },
        "metallicFactor": 0.0
      }
    }
  ],
  "meshes": [
    {
      "name": "Object_0",
      "primitives": [
        {
          "attributes": {
            "NORMAL": 1,
            "POSITION": 0,
            "TEXCOORD_0": 2
          },
          "indices": 3,
          "material": 0,
          "mode": 4
        }
      ]
    },
    {
      "name": "Object_1",
      "primitives": [
        {
          "attributes": {
            "NORMAL": 5,
            "POSITION": 4,
            "TEXCOORD_0": 6
          },
          "indices": 7,
          "material": 1,
          "mode": 4
        }
      ]
    },
    {
      "name": "Object_2",
      "primitives": [
        {
          "attributes": {
            "NORMAL": 9,
            "POSITION": 8,
            "TEXCOORD_0": 10
          },
          "indices": 11,
          "material": 2,
          "mode": 4
        }
      ]
    },
    {
      "name": "Object_3",
      "primitives": [
        {
          "attributes": {
            "NORMAL": 13,
            "POSITION": 12,
            "TEXCOORD_0": 14
          },
          "indices": 15,
          "material": 3,
          "mode": 4
        }
      ]
    },
    {
      "name": "Object_4",
      "primitives": [
        {
          "attributes": {
            "NORMAL": 17,
            "POSITION": 16,
            "TEXCOORD_0": 18
          },
          "indices": 19,
          "material": 4,
          "mode": 4
        }
      ]
    },
    {
      "name": "Object_5",
      "primitives": [
        {
          "attributes": {
            "NORMAL": 21,
            "POSITION": 20,
            "TEXCOORD_0": 22
          },
          "indices": 23,
          "material": 0,
          "mode": 4
        }
      ]
    },
    {
      "name": "Object_6",
      "primitives": [
        {
          "attributes": {
            "NORMAL": 25,
            "POSITION": 24,
            "TEXCOORD_0": 26
          },
          "indices": 27,
          "material": 1,
          "mode": 4
        }
      ]
    },
    {
      "name": "Object_7",
      "primitives": [
        {
          "attributes": {
            "NORMAL": 29,
            "POSITION": 28,
            "TEXCOORD_0": 30
          },
          "indices": 31,
          "material": 2,
          "mode": 4
        }
      ]
    }
  ],
  "nodes": [
    {
      "children": [
        1
      ],
      "matrix": [
        1.0,
        0.0,
        0.0,
        0.0,
        0.0,
        2.220446049250313e-16,
        -1.0,
        0.0,
        0.0,
        1.0,
        2.220446049250313e-16,
        0.0,
        0.0,
        0.0,
        0.0,
        1.0
      ],
      "name": "Sketchfab_model"
    },
    {
      "children": [
        2
      ],
      "name": "root"
    },
    {
      "children": [
        3,
        7,
        9,
        11
      ],
      "matrix": [
        1.0,
        0.0,
        0.0,
        0.0,
        0.0,
        2.220446049250313e-16,
        1.0,
        0.0,
        0.0,
        -1.0,
        2.220446049250313e-16,
        0.0,
        0.0,
        0.0,
        0.0,
        1.0
      ],
      "name": "GLTF_SceneRootNode"
    },
    {
      "children": [
        4,
        5,
        6
      ],
      "matrix": [
        1.0,
        0.0,
        0.0,
        0.0,
        0.0,
        1.0,
        0.0,
        0.0,
        0.0,
        0.0,
        1.0,
        0.0,
        0.005346529185771942,
        0.11498501151800156,
        0.020509447902441025,
        1.0
      ],
      "name": "Delete_me_1"
    },
    {
      "mesh": 0,
      "name": "Object_4"
    },
    {
      "mesh": 1,
      "name": "Object_5"
    },
    {
      "mesh": 2,
      "name": "Object_6"
    },
    {
      "children": [
        8
      ],
      "matrix": [
        1.0,
        0.0,
        0.0,
        0.0,
        0.0,
        1.0,
        0.0,
        0.0,
        0.0,
        0.0,
        1.0,
        0.0,
        0.006692398339509964,
        0.01572960615158081,
        -0.0956331342458725,
        1.0
      ],
      "name": "Tag brand_5"
    },
    {
      "mesh": 3,
      "name": "Object_8"
    },
    {
      "children": [
        10
      ],
      "matrix": [
        0.5671212077140808,
        0.0,
        0.0,
        0.0,
        0.0,
        0.0,
        0.5671212077140808,
        0.0,
        0.0,
        -0.5671212077140808,
        0.0,
        0.0,
        0.0,
        0.09482084214687347,
        -0.4570387899875641,
        1.0
      ],
      "name": "DreamShaper_v7_A_dark_and_mysterious_anime_world_with_a_purple__6"
    },
    {
      "mesh": 4,
      "name": "Object_10"
    },
    {
      "children": [
        12,
        13,
        14
      ],
      "matrix": [
        0.06339066475629807,
        0.0,
        0.0,
        0.0,
        0.0,
        0.06339066475629807,
        0.0,
        0.0,
        0.0,
        0.0,
        0.06339066475629807,
        0.0,
        0.004087403882294893,
        0.008010919205844402,
        -0.006526492536067963,
        1.0
      ],
      "name": "model_7"
    },
    {
      "mesh": 5,
      "name": "Object_12"
    },
    {
      "mesh": 6,
      "name": "Object_13"
    },
    {
      "mesh": 7,
      "name": "Object_14"
    }
  ],
  "samplers": [
    {
      "magFilter": 9729,
      "minFilter": 9987,
      "wrapS": 10497,
      "wrapT": 10497
    }
  ],
  "scene": 0,
  "scenes": [
    {
      "name": "Sketchfab_Scene",
      "nodes": [
        0
      ]
    }
  ],
  "textures": [
    {
      "sampler": 0,
      "source": 0
    },
    {
      "sampler": 0,
      "source": 1
    },
    {
      "sampler": 0,
      "source": 2
    },
    {
      "sampler": 0,
      "source": 3
    }
  ]
}
